<svg width="20" height="20" viewBox="0 0 20 20" fill="none" xmlns="http://www.w3.org/2000/svg">
<path d="M11.5629 18.3332H8.43786C8.22953 18.3332 8.04897 18.2637 7.8962 18.1248C7.74342 17.9859 7.65314 17.8123 7.62536 17.604L7.37536 15.6665C7.19481 15.5971 7.02481 15.5137 6.86536 15.4165C6.70536 15.3193 6.54897 15.2151 6.3962 15.104L4.5837 15.854C4.38925 15.9234 4.19481 15.9304 4.00036 15.8748C3.80592 15.8193 3.65314 15.7012 3.54203 15.5207L2.00036 12.8332C1.88925 12.6526 1.85453 12.4582 1.8962 12.2498C1.93786 12.0415 2.04203 11.8748 2.2087 11.7498L3.7712 10.5623C3.75731 10.4651 3.75036 10.3712 3.75036 10.2807V9.71817C3.75036 9.62817 3.75731 9.53456 3.7712 9.43734L2.2087 8.24984C2.04203 8.12484 1.93786 7.95817 1.8962 7.74984C1.85453 7.5415 1.88925 7.34706 2.00036 7.1665L3.54203 4.479C3.63925 4.28456 3.78842 4.16289 3.98953 4.114C4.1912 4.06567 4.38925 4.07623 4.5837 4.14567L6.3962 4.89567C6.54897 4.78456 6.7087 4.68039 6.87536 4.58317C7.04203 4.48595 7.2087 4.40262 7.37536 4.33317L7.62536 2.39567C7.65314 2.18734 7.74342 2.01373 7.8962 1.87484C8.04897 1.73595 8.22953 1.6665 8.43786 1.6665H11.5629C11.7712 1.6665 11.9518 1.73595 12.1045 1.87484C12.2573 2.01373 12.3476 2.18734 12.3754 2.39567L12.6254 4.33317C12.8059 4.40262 12.9762 4.48595 13.1362 4.58317C13.2956 4.68039 13.4518 4.78456 13.6045 4.89567L15.417 4.14567C15.6115 4.07623 15.8059 4.06928 16.0004 4.12484C16.1948 4.18039 16.3476 4.29845 16.4587 4.479L18.0004 7.1665C18.1115 7.34706 18.1462 7.5415 18.1045 7.74984C18.0629 7.95817 17.9587 8.12484 17.792 8.24984L16.2295 9.43734C16.2434 9.53456 16.2504 9.62817 16.2504 9.71817V10.2807C16.2504 10.3712 16.2365 10.4651 16.2087 10.5623L17.7712 11.7498C17.9379 11.8748 18.042 12.0415 18.0837 12.2498C18.1254 12.4582 18.0906 12.6526 17.9795 12.8332L16.4379 15.4998C16.3268 15.6804 16.1706 15.8021 15.9695 15.8648C15.7679 15.9271 15.5698 15.9234 15.3754 15.854L13.6045 15.104C13.4518 15.2151 13.292 15.3193 13.1254 15.4165C12.9587 15.5137 12.792 15.5971 12.6254 15.6665L12.3754 17.604C12.3476 17.8123 12.2573 17.9859 12.1045 18.1248C11.9518 18.2637 11.7712 18.3332 11.5629 18.3332ZM10.042 12.9165C10.8476 12.9165 11.5351 12.6318 12.1045 12.0623C12.674 11.4929 12.9587 10.8054 12.9587 9.99984C12.9587 9.19428 12.674 8.50678 12.1045 7.93734C11.5351 7.36789 10.8476 7.08317 10.042 7.08317C9.22259 7.08317 8.53147 7.36789 7.9687 7.93734C7.40647 8.50678 7.12536 9.19428 7.12536 9.99984C7.12536 10.8054 7.40647 11.4929 7.9687 12.0623C8.53147 12.6318 9.22259 12.9165 10.042 12.9165ZM10.042 11.2498C9.69481 11.2498 9.39981 11.1282 9.15703 10.8848C8.9137 10.6421 8.79203 10.3471 8.79203 9.99984C8.79203 9.65262 8.9137 9.35761 9.15703 9.11484C9.39981 8.8715 9.69481 8.74984 10.042 8.74984C10.3893 8.74984 10.6845 8.8715 10.9279 9.11484C11.1706 9.35761 11.292 9.65262 11.292 9.99984C11.292 10.3471 11.1706 10.6421 10.9279 10.8848C10.6845 11.1282 10.3893 11.2498 10.042 11.2498ZM9.16703 16.6665H10.8129L11.1045 14.4582C11.5351 14.3471 11.9345 14.1837 12.3029 13.9682C12.6706 13.7532 13.0073 13.4929 13.3129 13.1873L15.3754 14.0415L16.1879 12.6248L14.3962 11.2707C14.4656 11.0762 14.5143 10.8712 14.542 10.6557C14.5698 10.4407 14.5837 10.2221 14.5837 9.99984C14.5837 9.77762 14.5698 9.55873 14.542 9.34317C14.5143 9.12817 14.4656 8.92345 14.3962 8.729L16.1879 7.37484L15.3754 5.95817L13.3129 6.83317C13.0073 6.51373 12.6706 6.24623 12.3029 6.03067C11.9345 5.81567 11.5351 5.65262 11.1045 5.5415L10.8337 3.33317H9.18786L8.8962 5.5415C8.46564 5.65262 8.06647 5.81567 7.6987 6.03067C7.33036 6.24623 6.99342 6.50678 6.68786 6.81234L4.62536 5.95817L3.81286 7.37484L5.60453 8.70817C5.53508 8.9165 5.48647 9.12484 5.4587 9.33317C5.43092 9.5415 5.41703 9.76373 5.41703 9.99984C5.41703 10.2221 5.43092 10.4373 5.4587 10.6457C5.48647 10.854 5.53508 11.0623 5.60453 11.2707L3.81286 12.6248L4.62536 14.0415L6.68786 13.1665C6.99342 13.4859 7.33036 13.7532 7.6987 13.9682C8.06647 14.1837 8.46564 14.3471 8.8962 14.4582L9.16703 16.6665Z" fill="#B8B8B8"/>
</svg>
