<svg width="19" height="16" viewBox="0 0 19 16" fill="none" xmlns="http://www.w3.org/2000/svg">
<path d="M10.833 0.5C6.69134 0.5 3.33301 3.85833 3.33301 8H0.833008L4.07467 11.2417L4.13301 11.3583L7.49967 8H4.99967C4.99967 4.775 7.60801 2.16667 10.833 2.16667C14.058 2.16667 16.6663 4.775 16.6663 8C16.6663 11.225 14.058 13.8333 10.833 13.8333C9.22467 13.8333 7.76634 13.175 6.71634 12.1167L5.53301 13.3C6.89134 14.6583 8.75801 15.5 10.833 15.5C14.9747 15.5 18.333 12.1417 18.333 8C18.333 3.85833 14.9747 0.5 10.833 0.5ZM9.99967 4.66667V8.83333L13.5413 10.9333L14.183 9.86667L11.2497 8.125V4.66667H9.99967Z" fill="#B8B8B8"/>
</svg>
