<svg width="18" height="19" viewBox="0 0 18 19" fill="none" xmlns="http://www.w3.org/2000/svg">
<rect y="0.5" width="18" height="18" rx="9" fill="#1D2433" fill-opacity="0.6"/>
<g clip-path="url(#clip0_269_20960)">
<path d="M8.99375 3.25C5.54375 3.25 2.75 6.05 2.75 9.5C2.75 12.95 5.54375 15.75 8.99375 15.75C12.45 15.75 15.25 12.95 15.25 9.5C15.25 6.05 12.45 3.25 8.99375 3.25ZM9 14.5C6.2375 14.5 4 12.2625 4 9.5C4 6.7375 6.2375 4.5 9 4.5C11.7625 4.5 14 6.7375 14 9.5C14 12.2625 11.7625 14.5 9 14.5ZM9.3125 6.375H8.375V10.125L11.6562 12.0938L12.125 11.325L9.3125 9.65625V6.375Z" fill="white"/>
</g>
<defs>
<clipPath id="clip0_269_20960">
<rect width="15" height="15" fill="white" transform="translate(1.5 2)"/>
</clipPath>
</defs>
</svg>
