<svg width="17" height="17" viewBox="0 0 17 17" fill="none" xmlns="http://www.w3.org/2000/svg">
<path fill-rule="evenodd" clip-rule="evenodd" d="M2.7 1.8C2.4613 1.8 2.23239 1.89482 2.0636 2.0636C1.89482 2.23239 1.8 2.4613 1.8 2.7V14.9272L3.8636 12.8636C4.03239 12.6948 4.2613 12.6 4.5 12.6H15.3C15.5387 12.6 15.7676 12.5052 15.9364 12.3364C16.1052 12.1676 16.2 11.9387 16.2 11.7V2.7C16.2 2.46131 16.1052 2.23239 15.9364 2.0636C15.7676 1.89482 15.5387 1.8 15.3 1.8H2.7ZM0.790812 0.790812C1.29716 0.284463 1.98392 0 2.7 0H15.3C16.0161 0 16.7028 0.284463 17.2092 0.790812C17.7155 1.29716 18 1.98392 18 2.7V11.7C18 12.4161 17.7155 13.1028 17.2092 13.6092C16.7028 14.1155 16.0161 14.4 15.3 14.4H4.87279L1.5364 17.7364C1.279 17.9938 0.891892 18.0708 0.555585 17.9315C0.219278 17.7922 0 17.464 0 17.1V2.7C0 1.98392 0.284463 1.29716 0.790812 0.790812Z" fill="#B8B8B8"/>
</svg>
