<svg width="34" height="30" viewBox="0 0 34 30" fill="none" xmlns="http://www.w3.org/2000/svg">
<path d="M2.31452 29.25C1.70757 29.25 1.25896 28.9861 0.968685 28.4583C0.678407 27.9306 0.678407 27.4028 0.968685 26.875L15.6145 1.54167C15.9048 1.01389 16.3666 0.75 16.9999 0.75C17.6333 0.75 18.0951 1.01389 18.3854 1.54167L33.0312 26.875C33.3215 27.4028 33.3215 27.9306 33.0312 28.4583C32.7409 28.9861 32.2923 29.25 31.6854 29.25H2.31452ZM16.9999 11.8333C16.5513 11.8333 16.1755 11.9848 15.8726 12.2878C15.5686 12.5918 15.4166 12.9681 15.4166 13.4167V18.1667C15.4166 18.6153 15.5686 18.9911 15.8726 19.294C16.1755 19.598 16.5513 19.75 16.9999 19.75C17.4485 19.75 17.8249 19.598 18.1289 19.294C18.4318 18.9911 18.5833 18.6153 18.5833 18.1667V13.4167C18.5833 12.9681 18.4318 12.5918 18.1289 12.2878C17.8249 11.9848 17.4485 11.8333 16.9999 11.8333ZM16.9999 24.5C17.4485 24.5 17.8249 24.348 18.1289 24.044C18.4318 23.7411 18.5833 23.3653 18.5833 22.9167C18.5833 22.4681 18.4318 22.0923 18.1289 21.7893C17.8249 21.4853 17.4485 21.3333 16.9999 21.3333C16.5513 21.3333 16.1755 21.4853 15.8726 21.7893C15.5686 22.0923 15.4166 22.4681 15.4166 22.9167C15.4166 23.3653 15.5686 23.7411 15.8726 24.044C16.1755 24.348 16.5513 24.5 16.9999 24.5ZM5.04577 26.0833H28.9541L16.9999 5.5L5.04577 26.0833Z" fill="#E02D3C"/>
</svg>
