<svg width="14" height="16" viewBox="0 0 14 16" fill="none" xmlns="http://www.w3.org/2000/svg">
<path fill-rule="evenodd" clip-rule="evenodd" d="M6.58123 0.643623C6.82744 0.452126 7.17221 0.452126 7.41842 0.643623L13.5548 5.41635C13.7209 5.54553 13.818 5.74414 13.818 5.95455V13.4545C13.818 13.997 13.6025 14.5173 13.2189 14.9009C12.8353 15.2845 12.315 15.5 11.7725 15.5H2.2271C1.68461 15.5 1.16434 15.2845 0.78074 14.9009C0.397143 14.5173 0.181641 13.997 0.181641 13.4545V5.95455C0.181641 5.74414 0.278781 5.54553 0.444863 5.41635L6.58123 0.643623ZM1.54528 6.28801V13.4545C1.54528 13.6354 1.61711 13.8088 1.74498 13.9367C1.87284 14.0645 2.04627 14.1364 2.2271 14.1364H11.7725C11.9534 14.1364 12.1268 14.0645 12.2547 13.9367C12.3825 13.8088 12.4544 13.6354 12.4544 13.4545V6.28801L6.99982 2.04559L1.54528 6.28801Z" fill="#B8B8B8"/>
<path fill-rule="evenodd" clip-rule="evenodd" d="M4.27255 8C4.27255 7.62344 4.57781 7.31818 4.95437 7.31818H9.04528C9.42183 7.31818 9.7271 7.62344 9.7271 8V14.8182C9.7271 15.1947 9.42183 15.5 9.04528 15.5C8.66872 15.5 8.36346 15.1947 8.36346 14.8182V8.68182H5.63619V14.8182C5.63619 15.1947 5.33093 15.5 4.95437 15.5C4.57781 15.5 4.27255 15.1947 4.27255 14.8182V8Z" fill="#B8B8B8"/>
</svg>
