<svg width="18" height="19" viewBox="0 0 18 19" fill="none" xmlns="http://www.w3.org/2000/svg">
<rect y="0.5" width="18" height="18" rx="9" fill="#F4BBBB"/>
<g clip-path="url(#clip0_269_20951)">
<path d="M10.6188 7L9 8.61875L7.38125 7L6.5 7.88125L8.11875 9.5L6.5 11.1188L7.38125 12L9 10.3812L10.6188 12L11.5 11.1188L9.88125 9.5L11.5 7.88125L10.6188 7ZM9 3.25C5.54375 3.25 2.75 6.04375 2.75 9.5C2.75 12.9563 5.54375 15.75 9 15.75C12.4563 15.75 15.25 12.9563 15.25 9.5C15.25 6.04375 12.4563 3.25 9 3.25ZM9 14.5C6.24375 14.5 4 12.2563 4 9.5C4 6.74375 6.24375 4.5 9 4.5C11.7563 4.5 14 6.74375 14 9.5C14 12.2563 11.7563 14.5 9 14.5Z" fill="#B51E1E"/>
</g>
<defs>
<clipPath id="clip0_269_20951">
<rect width="15" height="15" fill="white" transform="translate(1.5 2)"/>
</clipPath>
</defs>
</svg>
