<svg width="18" height="19" viewBox="0 0 18 19" fill="none" xmlns="http://www.w3.org/2000/svg">
<rect y="0.5" width="18" height="18" rx="9" fill="#1D2433" fill-opacity="0.6"/>
<g clip-path="url(#clip0_269_20978)">
<path d="M13.0625 4.89587L12.25 4.08337L11.4375 4.89587L10.625 4.08337L9.8125 4.89587L9 4.08337L8.1875 4.89587L7.375 4.08337L6.5625 4.89587L5.75 4.08337L4.9375 4.89587L4.125 4.08337V14.9167L4.9375 14.1042L5.75 14.9167L6.5625 14.1042L7.375 14.9167L8.1875 14.1042L9 14.9167L9.8125 14.1042L10.625 14.9167L11.4375 14.1042L12.25 14.9167L13.0625 14.1042L13.875 14.9167V4.08337L13.0625 4.89587ZM12.7917 13.3405H5.20833V5.65962H12.7917V13.3405ZM5.75 11.125H12.25V12.2084H5.75V11.125ZM5.75 8.95837H12.25V10.0417H5.75V8.95837ZM5.75 6.79171H12.25V7.87504H5.75V6.79171Z" fill="white"/>
</g>
<defs>
<clipPath id="clip0_269_20978">
<rect width="13" height="13" fill="white" transform="translate(2.5 3)"/>
</clipPath>
</defs>
</svg>
