<svg width="26" height="29" viewBox="0 0 26 29" fill="none" xmlns="http://www.w3.org/2000/svg">
<path d="M23.625 2.45825L21.5 0.333252L19.375 2.45825L17.25 0.333252L15.125 2.45825L13 0.333252L10.875 2.45825L8.75 0.333252L6.625 2.45825L4.5 0.333252L2.375 2.45825L0.25 0.333252V28.6666L2.375 26.5416L4.5 28.6666L6.625 26.5416L8.75 28.6666L10.875 26.5416L13 28.6666L15.125 26.5416L17.25 28.6666L19.375 26.5416L21.5 28.6666L23.625 26.5416L25.75 28.6666V0.333252L23.625 2.45825ZM22.9167 24.5441H3.08333V4.45575H22.9167V24.5441ZM4.5 18.7499H21.5V21.5833H4.5V18.7499ZM4.5 13.0833H21.5V15.9166H4.5V13.0833ZM4.5 7.41658H21.5V10.2499H4.5V7.41658Z" fill="#DC2F2F"/>
</svg>
