<svg width="18" height="18" viewBox="0 0 18 18" fill="none" xmlns="http://www.w3.org/2000/svg">
<path d="M9.83309 17.3333C9.3192 17.3333 8.81587 17.2811 8.32309 17.1767C7.82976 17.0728 7.34698 16.9236 6.87476 16.7292C6.58309 16.6042 6.42003 16.3958 6.38559 16.1042C6.35059 15.8125 6.45114 15.5486 6.68726 15.3125C6.78448 15.2153 6.90948 15.1528 7.06226 15.125C7.21503 15.0972 7.36087 15.1181 7.49976 15.1875C7.86087 15.3542 8.2392 15.4758 8.63476 15.5525C9.03087 15.6286 9.43031 15.6667 9.83309 15.6667C11.4581 15.6667 12.8364 15.1006 13.9681 13.9683C15.1003 12.8367 15.6664 11.4583 15.6664 9.83333C15.6664 8.20833 15.1003 6.82972 13.9681 5.6975C12.8364 4.56583 11.4581 4 9.83309 4H9.70809L10.4373 4.72917C10.59 4.88194 10.6664 5.07639 10.6664 5.3125C10.6664 5.54861 10.59 5.74305 10.4373 5.89583C10.2706 6.0625 10.0692 6.14583 9.83309 6.14583C9.59698 6.14583 9.40253 6.0625 9.24976 5.89583L7.08309 3.75C7.01364 3.66667 6.95809 3.57639 6.91642 3.47917C6.87476 3.38194 6.85392 3.27778 6.85392 3.16667C6.85392 3.05556 6.87476 2.94778 6.91642 2.84333C6.95809 2.73944 7.01364 2.65278 7.08309 2.58333L9.24976 0.416667C9.40253 0.263889 9.59698 0.1875 9.83309 0.1875C10.0692 0.1875 10.2706 0.263889 10.4373 0.416667C10.59 0.583333 10.6664 0.784722 10.6664 1.02083C10.6664 1.25694 10.59 1.45139 10.4373 1.60417L9.70809 2.33333H9.83309C10.8748 2.33333 11.8506 2.53139 12.7606 2.9275C13.67 3.32306 14.4617 3.8575 15.1356 4.53083C15.8089 5.20472 16.3436 5.99639 16.7398 6.90583C17.1353 7.81583 17.3331 8.79167 17.3331 9.83333C17.3331 11.9167 16.6039 13.6875 15.1456 15.1458C13.6873 16.6042 11.9164 17.3333 9.83309 17.3333ZM4.83309 14.4792C4.72198 14.4792 4.61781 14.4617 4.52059 14.4267C4.42337 14.3922 4.33309 14.3333 4.24976 14.25L0.416423 10.4167C0.333089 10.3333 0.2742 10.2431 0.239756 10.1458C0.204756 10.0486 0.187256 9.94444 0.187256 9.83333C0.187256 9.72222 0.204756 9.61806 0.239756 9.52083C0.2742 9.42361 0.333089 9.33333 0.416423 9.25L4.24976 5.41667C4.33309 5.33333 4.42337 5.27444 4.52059 5.24C4.61781 5.205 4.72198 5.1875 4.83309 5.1875C4.9442 5.1875 5.04837 5.205 5.14559 5.24C5.24281 5.27444 5.33309 5.33333 5.41642 5.41667L9.24976 9.25C9.33309 9.33333 9.39225 9.42361 9.42725 9.52083C9.4617 9.61806 9.47892 9.72222 9.47892 9.83333C9.47892 9.94444 9.4617 10.0486 9.42725 10.1458C9.39225 10.2431 9.33309 10.3333 9.24976 10.4167L5.41642 14.25C5.33309 14.3333 5.24281 14.3922 5.14559 14.4267C5.04837 14.4617 4.9442 14.4792 4.83309 14.4792ZM4.83309 12.4583L7.45809 9.83333L4.83309 7.20833L2.20809 9.83333L4.83309 12.4583Z" fill="#B8B8B8"/>
</svg>
