<svg width="14" height="14" viewBox="0 0 14 14" fill="none" xmlns="http://www.w3.org/2000/svg">
<path d="M0.25 7.75H1.75V6.25H0.25V7.75ZM0.25 10.75H1.75V9.25H0.25V10.75ZM1.75 13.75V12.25H0.25C0.25 13.075 0.9175 13.75 1.75 13.75ZM0.25 4.75H1.75V3.25H0.25V4.75ZM9.25 13.75H10.75V12.25H9.25V13.75ZM12.25 0.25H4.75C3.9175 0.25 3.25 0.925 3.25 1.75V9.25C3.25 10.075 3.9175 10.75 4.75 10.75H12.25C13.075 10.75 13.75 10.075 13.75 9.25V1.75C13.75 0.925 13.075 0.25 12.25 0.25ZM12.25 9.25H4.75V1.75H12.25V9.25ZM6.25 13.75H7.75V12.25H6.25V13.75ZM3.25 13.75H4.75V12.25H3.25V13.75Z" fill="#1D2433" fill-opacity="0.8"/>
</svg>
