<svg width="20" height="20" viewBox="0 0 20 20" fill="none" xmlns="http://www.w3.org/2000/svg">
<path d="M10.8331 18.3333C10.3192 18.3333 9.81587 18.2811 9.32309 18.1767C8.82976 18.0728 8.34698 17.9236 7.87476 17.7292C7.58309 17.6042 7.42003 17.3958 7.38559 17.1042C7.35059 16.8125 7.45114 16.5486 7.68726 16.3125C7.78448 16.2153 7.90948 16.1528 8.06226 16.125C8.21503 16.0972 8.36087 16.1181 8.49976 16.1875C8.86087 16.3542 9.2392 16.4758 9.63476 16.5525C10.0309 16.6286 10.4303 16.6667 10.8331 16.6667C12.4581 16.6667 13.8364 16.1006 14.9681 14.9683C16.1003 13.8367 16.6664 12.4583 16.6664 10.8333C16.6664 9.20833 16.1003 7.82972 14.9681 6.6975C13.8364 5.56583 12.4581 5 10.8331 5H10.7081L11.4373 5.72917C11.59 5.88194 11.6664 6.07639 11.6664 6.3125C11.6664 6.54861 11.59 6.74305 11.4373 6.89583C11.2706 7.0625 11.0692 7.14583 10.8331 7.14583C10.597 7.14583 10.4025 7.0625 10.2498 6.89583L8.08309 4.75C8.01364 4.66667 7.95809 4.57639 7.91642 4.47917C7.87476 4.38194 7.85392 4.27778 7.85392 4.16667C7.85392 4.05556 7.87476 3.94778 7.91642 3.84333C7.95809 3.73944 8.01364 3.65278 8.08309 3.58333L10.2498 1.41667C10.4025 1.26389 10.597 1.1875 10.8331 1.1875C11.0692 1.1875 11.2706 1.26389 11.4373 1.41667C11.59 1.58333 11.6664 1.78472 11.6664 2.02083C11.6664 2.25694 11.59 2.45139 11.4373 2.60417L10.7081 3.33333H10.8331C11.8748 3.33333 12.8506 3.53139 13.7606 3.9275C14.67 4.32306 15.4617 4.8575 16.1356 5.53083C16.8089 6.20472 17.3436 6.99639 17.7398 7.90583C18.1353 8.81583 18.3331 9.79167 18.3331 10.8333C18.3331 12.9167 17.6039 14.6875 16.1456 16.1458C14.6873 17.6042 12.9164 18.3333 10.8331 18.3333ZM5.83309 15.4792C5.72198 15.4792 5.61781 15.4617 5.52059 15.4267C5.42337 15.3922 5.33309 15.3333 5.24976 15.25L1.41642 11.4167C1.33309 11.3333 1.2742 11.2431 1.23976 11.1458C1.20476 11.0486 1.18726 10.9444 1.18726 10.8333C1.18726 10.7222 1.20476 10.6181 1.23976 10.5208C1.2742 10.4236 1.33309 10.3333 1.41642 10.25L5.24976 6.41667C5.33309 6.33333 5.42337 6.27444 5.52059 6.24C5.61781 6.205 5.72198 6.1875 5.83309 6.1875C5.9442 6.1875 6.04837 6.205 6.14559 6.24C6.24281 6.27444 6.33309 6.33333 6.41642 6.41667L10.2498 10.25C10.3331 10.3333 10.3923 10.4236 10.4273 10.5208C10.4617 10.6181 10.4789 10.7222 10.4789 10.8333C10.4789 10.9444 10.4617 11.0486 10.4273 11.1458C10.3923 11.2431 10.3331 11.3333 10.2498 11.4167L6.41642 15.25C6.33309 15.3333 6.24281 15.3922 6.14559 15.4267C6.04837 15.4617 5.9442 15.4792 5.83309 15.4792ZM5.83309 13.4583L8.45809 10.8333L5.83309 8.20833L3.20809 10.8333L5.83309 13.4583Z" fill="#B8B8B8"/>
</svg>
