<svg width="14" height="14" viewBox="0 0 14 14" fill="none" xmlns="http://www.w3.org/2000/svg">
<path d="M6.99967 7.66659C7.18856 7.66659 7.34701 7.60259 7.47501 7.47459C7.60256 7.34703 7.66634 7.18881 7.66634 6.99992V4.31659C7.66634 4.1277 7.60256 3.97214 7.47501 3.84992C7.34701 3.7277 7.18856 3.66659 6.99967 3.66659C6.81079 3.66659 6.65256 3.73036 6.52501 3.85792C6.39701 3.98592 6.33301 4.14436 6.33301 4.33325V7.01659C6.33301 7.20547 6.39701 7.36103 6.52501 7.48325C6.65256 7.60547 6.81079 7.66659 6.99967 7.66659ZM6.99967 10.3333C7.18856 10.3333 7.34701 10.2693 7.47501 10.1413C7.60256 10.0137 7.66634 9.85547 7.66634 9.66659C7.66634 9.4777 7.60256 9.31925 7.47501 9.19125C7.34701 9.0637 7.18856 8.99992 6.99967 8.99992C6.81079 8.99992 6.65256 9.0637 6.52501 9.19125C6.39701 9.31925 6.33301 9.4777 6.33301 9.66659C6.33301 9.85547 6.39701 10.0137 6.52501 10.1413C6.65256 10.2693 6.81079 10.3333 6.99967 10.3333ZM6.99967 13.6666C6.07745 13.6666 5.21079 13.4915 4.39967 13.1413C3.58856 12.7915 2.88301 12.3166 2.28301 11.7166C1.68301 11.1166 1.20812 10.411 0.858341 9.59992C0.508119 8.78881 0.333008 7.92214 0.333008 6.99992C0.333008 6.0777 0.508119 5.21103 0.858341 4.39992C1.20812 3.58881 1.68301 2.88325 2.28301 2.28325C2.88301 1.68325 3.58856 1.20814 4.39967 0.857919C5.21079 0.508141 6.07745 0.333252 6.99967 0.333252C7.9219 0.333252 8.78856 0.508141 9.59967 0.857919C10.4108 1.20814 11.1163 1.68325 11.7163 2.28325C12.3163 2.88325 12.7912 3.58881 13.141 4.39992C13.4912 5.21103 13.6663 6.0777 13.6663 6.99992C13.6663 7.92214 13.4912 8.78881 13.141 9.59992C12.7912 10.411 12.3163 11.1166 11.7163 11.7166C11.1163 12.3166 10.4108 12.7915 9.59967 13.1413C8.78856 13.4915 7.9219 13.6666 6.99967 13.6666ZM6.99967 12.3333C8.47745 12.3333 9.7359 11.8139 10.775 10.7753C11.8137 9.73614 12.333 8.4777 12.333 6.99992C12.333 5.52214 11.8137 4.2637 10.775 3.22459C9.7359 2.18592 8.47745 1.66659 6.99967 1.66659C5.5219 1.66659 4.26367 2.18592 3.22501 3.22459C2.1859 4.2637 1.66634 5.52214 1.66634 6.99992C1.66634 8.4777 2.1859 9.73614 3.22501 10.7753C4.26367 11.8139 5.5219 12.3333 6.99967 12.3333Z" fill="#E02D3C"/>
</svg>
