<svg width="121" height="56" viewBox="0 0 121 56" fill="none" xmlns="http://www.w3.org/2000/svg">
<g clip-path="url(#clip0_269_23821)">
<path d="M121 17.8619L89.1237 30.2753L90.9774 26.1772L47.7804 41.3094L50.1714 36.2389L0.00967999 56L37.6745 46.3105L34.5866 52.403L81.2829 34.5768L78.6161 39.8855L121 17.8619ZM113.875 2.83391C114.103 2.83391 114.316 2.81406 114.316 2.53622C114.316 2.308 114.113 2.26831 113.924 2.26831H113.561V2.83391H113.875ZM113.556 3.86091H113.28V2.03512H113.963C114.379 2.03512 114.587 2.19389 114.587 2.55111C114.587 2.87856 114.388 3.02244 114.127 3.05221L114.63 3.85595H114.33L113.856 3.06709H113.551L113.556 3.86091ZM113.88 4.26774C114.577 4.26774 115.134 3.70711 115.134 2.94306C115.134 2.19389 114.577 1.62829 113.88 1.62829C113.174 1.62829 112.622 2.19389 112.622 2.94306C112.622 3.70711 113.174 4.26774 113.88 4.26774ZM112.312 2.94306C112.312 2.03512 113.033 1.36534 113.885 1.36534C114.727 1.36534 115.448 2.03512 115.448 2.94306C115.448 3.86091 114.727 4.53566 113.885 4.53566C113.028 4.53566 112.312 3.86091 112.312 2.94306ZM28.1397 8.09297L22.6125 12.8757C22.6125 12.8757 20.4151 10.3454 20.2409 10.147C20.0473 10.3157 15.5267 14.2451 15.5267 14.2451L16.1704 7.72086L0 21.6921L11.0449 16.2544L8.20863 40.6644C8.20863 40.6644 11.5918 43.2295 11.8725 43.4229C12.1581 41.0961 14.8878 18.7351 15.0379 17.5196L15.0475 17.47L18.2468 14.7015L18.9292 15.3912L16.3543 37.6578C16.3543 37.6578 19.7907 40.2874 20.0134 40.4412C20.0376 40.2229 22.3414 20.04 22.8883 15.2274L26.0682 12.4689L26.7458 13.1536L24.2629 34.8646L27.9219 37.6281L30.8985 11.2087L28.1397 8.09297ZM37.1179 12.975L33.304 13.6398L32.8297 17.47L36.6436 16.7307L37.1179 12.975ZM57.6347 14.5824L56.1004 26.7527L55.2534 27.6855L53.8159 26.465L55.2437 15.0191L51.425 15.9716L49.9536 27.8839L48.8259 29.4219L47.6207 28.3304L49.0534 16.3437L45.2201 17.1624L43.9375 28.0625L42.35 30.2753L41.2271 29.3426L43.7052 8.83717L39.9638 9.45735L37.6552 29.1639L35.7531 31.848L34.8093 31.0443L36.3919 19.0328L32.5732 19.8316L30.8017 33.7532L34.1655 36.4572L37.4761 31.8729L40.9367 34.7108L44.2666 30.0669L47.8385 33.2472L51.362 28.4694L54.2225 31.0542L59.1738 25.5372L60.6936 13.9027L57.6347 14.5824ZM66.6951 22.5852L65.156 24.5251L64.3332 23.7957L65.5868 13.6646L67.6631 14.7908L66.6951 22.5852ZM100.256 8.08801L102.061 10.2412L99.8201 11.5064L100.256 8.08801ZM109.853 6.07369L111.514 8.10785L109.457 9.30354L109.853 6.07369ZM110.1 14.0615L109.002 13.1139L109.229 11.2583L114.364 8.2815L110.221 3.02244L106.441 6.4061L105.555 13.7142L100.522 16.5521L99.3216 15.545L99.5684 13.5803L105.154 10.4248L100.653 4.85815L96.5482 8.44026L95.6819 15.3763L93.8572 17.1872L90.9871 11.3724L97.4194 5.35429L94.5009 5.79089L89.6561 10.018L90.808 0.541748L87.3087 1.03789L85.3533 17.2566L83.2334 19.6431L82.7349 19.2114L84.0078 8.92152L80.2375 9.8096L79.0613 19.1171L77.3867 21.196L76.6704 20.5609L77.9336 10.3554L74.1342 11.1293L72.9581 20.675L71.1963 22.9672L70.4268 22.2726L71.7384 11.6155L67.9487 12.4491L67.8616 13.2776L65.2141 11.9678L61.497 16.8349L60.4225 25.5273L64.0186 28.6628L67.3195 24.3018L70.1557 26.7726L73.2533 22.6993L75.9153 25.0857L78.8387 21.1612L81.6217 23.6419L85.3921 19.4396L88.2622 21.7715L89.1237 14.642L92.1439 20.9926L96.1514 16.9937L98.7504 19.2362L106.494 14.8504L108.474 16.6017L115.589 12.3399L115.782 10.7721L110.1 14.0615Z" fill="white"/>
</g>
<defs>
<clipPath id="clip0_269_23821">
<rect width="121" height="55.4583" fill="white" transform="translate(0 0.541748)"/>
</clipPath>
</defs>
</svg>
